<svg width="183" height="35" viewBox="0 0 183 35" fill="none" xmlns="http://www.w3.org/2000/svg">
<path d="M11.421 2.67006H10.989C10.611 2.67006 10.359 2.68805 10.359 3.37205V5.11805H10.647C11.169 5.11805 11.187 5.19005 11.835 3.28205C12.825 0.402055 13.599 0.132064 14.931 0.0420645C15.111 0.0240645 15.291 0.0240645 15.471 0.0420645C15.759 0.0780645 16.407 0.240053 16.623 0.312053V3.30006C16.479 3.24606 16.335 3.24606 16.209 3.24606C15.669 3.24606 15.381 4.05606 15.021 4.74006C14.751 5.26206 14.373 5.91006 13.095 6.16206V6.39605C14.085 6.34205 14.931 6.90005 15.327 7.92605C15.651 8.73605 15.525 9.47406 16.299 9.47406C16.461 9.47406 16.731 9.38405 16.821 9.36605L16.857 12.9481C16.263 13.1821 15.669 13.2541 15.165 13.2541C13.527 13.2541 12.879 12.2641 12.339 10.9681C11.511 8.95206 11.511 7.63806 10.665 7.63806H10.359V9.92405C10.359 10.6081 10.611 10.6261 10.989 10.6261H11.421V12.9481H5.625V10.6261H6.057C6.453 10.6261 6.705 10.6081 6.705 9.92405V7.63806H6.381C5.607 7.63806 5.643 8.62806 4.707 10.9681C4.311 11.9581 3.717 13.2541 1.881 13.2541C1.395 13.2541 0.819001 13.1821 0.207001 12.9481L0.224998 9.36605C0.368998 9.40205 0.602999 9.47406 0.764999 9.47406C1.521 9.47406 1.395 8.73605 1.719 7.92605C2.205 6.72005 3.123 6.34205 3.951 6.39605V6.16206C2.673 5.87406 2.313 5.28006 2.025 4.74006C1.665 4.05606 1.377 3.24606 0.836998 3.24606C0.710998 3.24606 0.566997 3.24606 0.422997 3.30006V0.312053C0.656997 0.240053 1.305 0.0780645 1.575 0.0420645C1.755 0.0240645 1.953 0.0240645 2.133 0.0420645C3.645 0.150064 4.275 0.564055 5.211 3.28205C5.877 5.19005 5.859 5.11805 6.399 5.11805H6.705V3.37205C6.705 2.68805 6.453 2.67006 6.057 2.67006H5.625V0.348064H11.421V2.67006V2.67006Z" fill="#CC0000"/>
<path d="M30.681 0.348145V2.67014H29.997C29.601 2.67014 29.349 2.68813 29.349 3.37213V9.92413C29.349 10.6081 29.601 10.6261 29.997 10.6261H30.681V12.9481H24.633V10.6261H24.957C25.659 10.6261 25.587 10.1941 25.587 9.90614V6.73814H25.461L22.779 12.9481H18.117V10.6261H18.801C19.395 10.6261 19.431 10.4281 19.431 9.90614V3.37213C19.431 2.68813 19.179 2.67014 18.801 2.67014H18.117V0.348145H24.147V2.67014H23.841C23.535 2.67014 23.193 2.61613 23.193 3.37213V6.86414H23.319L26.091 0.348145H30.681Z" fill="#CC0000"/>
<path d="M37.071 0.348145C40.491 0.348145 43.029 0.456134 43.029 3.53413C43.029 5.15413 41.805 6.27014 40.455 6.27014H40.239V6.43214H40.581C41.607 6.43214 43.407 7.20614 43.407 9.52814C43.407 13.1821 39.915 12.9481 36.441 12.9481H31.941V10.6261H32.625C33.003 10.6261 33.255 10.6081 33.255 9.92413V3.37213C33.255 2.68813 33.003 2.67014 32.625 2.67014H31.941V0.348145H37.071ZM37.359 5.33414C38.385 5.33414 39.069 5.19014 39.069 4.16414C39.069 2.90414 38.115 2.86813 37.503 2.86813H37.017V5.33414H37.359V5.33414ZM37.377 10.4281C38.565 10.4281 39.213 10.1581 39.213 9.06013C39.213 7.94413 38.223 7.85414 37.557 7.85414H37.017V10.4281H37.377V10.4281Z" fill="#CC0000"/>
<path d="M54.765 2.32799C55.881 3.91199 56.007 5.69398 56.007 6.64798C56.007 8.24998 55.629 9.92398 54.837 11.04C53.973 12.246 52.533 13.254 50.175 13.254C47.511 13.254 46.143 11.94 45.495 11.04C44.307 9.36598 44.343 7.04398 44.343 6.64798C44.343 5.60398 44.433 3.96599 45.585 2.32799C46.791 0.617988 48.501 0.0419922 50.175 0.0419922C52.785 0.0419922 54.153 1.44599 54.765 2.32799ZM48.537 6.05399V7.25998C48.537 8.96998 48.663 10.734 50.175 10.734C51.687 10.734 51.813 8.98798 51.813 7.25998V6.05399C51.813 4.36199 51.687 2.56198 50.175 2.56198C48.591 2.56198 48.537 4.55999 48.537 6.05399Z" fill="#CC0000"/>
<path d="M68.084 0.348145V4.57814H65.96C65.564 2.65214 65.744 2.86813 64.79 2.86813H64.394V9.94214C64.394 10.6261 64.646 10.6441 65.024 10.6441H65.708V12.9661H59.3V10.6441H59.984C60.38 10.6441 60.632 10.6261 60.632 9.94214V2.86813H60.236C59.39 2.86813 59.336 2.70614 59.066 4.57814H56.942V0.348145H68.084Z" fill="#CC0000"/>
<path d="M69.021 10.6261H69.705C70.083 10.6261 70.335 10.6081 70.335 9.92413V3.37213C70.335 2.68813 70.083 2.67014 69.705 2.67014H69.021V0.348145H74.799V2.67014H74.709C74.187 2.67014 74.097 2.86814 74.097 3.39014V5.02814H76.707V3.39014C76.707 2.94014 76.689 2.67014 76.077 2.67014H75.987V0.348145H81.801V2.67014H81.117C80.775 2.67014 80.469 2.68813 80.469 3.37213V9.92413C80.469 10.6081 80.775 10.6261 81.117 10.6261H81.801V12.9481H75.987V10.6261H76.077C76.455 10.6261 76.707 10.6081 76.707 9.92413V7.54814H74.097V9.92413C74.097 10.6081 74.295 10.6261 74.745 10.6261H74.817V12.9481H69.021V10.6261Z" fill="#CC0000"/>
<path d="M93.482 2.32799C94.598 3.91199 94.724 5.69398 94.724 6.64798C94.724 8.24998 94.346 9.92398 93.554 11.04C92.69 12.246 91.25 13.254 88.892 13.254C86.228 13.254 84.86 11.94 84.212 11.04C83.024 9.36598 83.06 7.04398 83.06 6.64798C83.06 5.60398 83.15 3.96599 84.302 2.32799C85.508 0.617988 87.218 0.0419922 88.892 0.0419922C91.502 0.0419922 92.871 1.44599 93.482 2.32799ZM87.254 6.05399V7.25998C87.254 8.96998 87.38 10.734 88.892 10.734C90.404 10.734 90.53 8.98798 90.53 7.25998V6.05399C90.53 4.36199 90.404 2.56198 88.892 2.56198C87.309 2.56198 87.254 4.55999 87.254 6.05399Z" fill="#CC0000"/>
<path d="M101.114 0.348145C104.534 0.348145 107.072 0.456134 107.072 3.53413C107.072 5.15413 105.848 6.27014 104.498 6.27014H104.282V6.43214H104.624C105.65 6.43214 107.45 7.20614 107.45 9.52814C107.45 13.1821 103.958 12.9481 100.484 12.9481H95.984V10.6261H96.668C97.046 10.6261 97.298 10.6081 97.298 9.92413V3.37213C97.298 2.68813 97.046 2.67014 96.668 2.67014H95.984V0.348145H101.114ZM101.402 5.33414C102.428 5.33414 103.112 5.19014 103.112 4.16414C103.112 2.90414 102.158 2.86813 101.546 2.86813H101.06V5.33414H101.402V5.33414ZM101.42 10.4281C102.608 10.4281 103.256 10.1581 103.256 9.06013C103.256 7.94413 102.266 7.85414 101.6 7.85414H101.06V10.4281H101.42V10.4281Z" fill="#CC0000"/>
<path d="M118.808 2.32799C119.924 3.91199 120.05 5.69398 120.05 6.64798C120.05 8.24998 119.672 9.92398 118.88 11.04C118.016 12.246 116.576 13.254 114.218 13.254C111.554 13.254 110.186 11.94 109.538 11.04C108.35 9.36598 108.386 7.04398 108.386 6.64798C108.386 5.60398 108.476 3.96599 109.628 2.32799C110.834 0.617988 112.544 0.0419922 114.218 0.0419922C116.828 0.0419922 118.196 1.44599 118.808 2.32799ZM112.58 6.05399V7.25998C112.58 8.96998 112.706 10.734 114.218 10.734C115.73 10.734 115.856 8.98798 115.856 7.25998V6.05399C115.856 4.36199 115.73 2.56198 114.218 2.56198C112.634 2.56198 112.58 4.55999 112.58 6.05399Z" fill="#CC0000"/>
<path d="M133.28 0.348145V2.67014H132.794C132.218 2.67014 132.146 2.79614 132.146 3.39014V9.51013C132.146 10.0321 132.218 10.2301 132.794 10.2301H133.442V15.7201H131.228C131.174 14.8741 131.048 13.9381 131.03 13.7941C130.904 12.8581 130.562 12.9481 129.95 12.9481H124.172C123.722 12.9481 123.614 12.8761 123.488 13.6681L123.164 15.7201H120.95V10.2301C122.03 10.0681 122.354 9.69013 122.696 8.53813C123.146 7.04413 123.326 4.74014 123.344 3.85814C123.344 3.62414 123.344 3.40813 123.344 3.17413C123.344 2.85013 123.416 2.67014 122.336 2.67014H121.976V0.348145H133.28ZM128.384 10.4281V2.86813H126.26C126.242 4.47013 126.008 8.23213 125.36 10.4281H128.384Z" fill="#CC0000"/>
<path d="M141.488 5.17198C141.434 3.85798 141.362 2.56198 139.994 2.56198C138.284 2.56198 138.392 4.45198 138.392 6.59398C138.392 10.68 138.878 10.734 140.03 10.734C140.642 10.734 141.74 10.536 141.686 7.87198H145.952C145.862 10.59 143.918 13.254 140.048 13.254C137.618 13.254 134.198 12.084 134.198 6.64798C134.198 2.57998 136.7 0.0419922 139.976 0.0419922C143.378 0.0419922 145.718 2.21998 145.754 5.17198H141.488Z" fill="#CC0000"/>
<path d="M157.706 0.348145V4.57814H155.582C155.186 2.65214 155.366 2.86813 154.412 2.86813H154.016V9.94214C154.016 10.6261 154.268 10.6441 154.646 10.6441H155.33V12.9661H148.922V10.6441H149.606C150.002 10.6441 150.254 10.6261 150.254 9.94214V2.86813H149.858C149.012 2.86813 148.958 2.70614 148.688 4.57814H146.564V0.348145H157.706Z" fill="#CC0000"/>
<path d="M163.772 0.348145C167.192 0.348145 169.73 0.456134 169.73 3.53413C169.73 5.15413 168.506 6.27014 167.156 6.27014H166.94V6.43214H167.282C168.308 6.43214 170.108 7.20614 170.108 9.52814C170.108 13.1821 166.616 12.9481 163.142 12.9481H158.642V10.6261H159.326C159.704 10.6261 159.956 10.6081 159.956 9.92413V3.37213C159.956 2.68813 159.704 2.67014 159.326 2.67014H158.642V0.348145H163.772ZM164.06 5.33414C165.086 5.33414 165.77 5.19014 165.77 4.16414C165.77 2.90414 164.816 2.86813 164.204 2.86813H163.718V5.33414H164.06V5.33414ZM164.078 10.4281C165.266 10.4281 165.914 10.1581 165.914 9.06013C165.914 7.94413 164.924 7.85414 164.258 7.85414H163.718V10.4281H164.078V10.4281Z" fill="#CC0000"/>
<path d="M181.466 2.32799C182.582 3.91199 182.708 5.69398 182.708 6.64798C182.708 8.24998 182.33 9.92398 181.538 11.04C180.674 12.246 179.234 13.254 176.876 13.254C174.212 13.254 172.844 11.94 172.196 11.04C171.008 9.36598 171.044 7.04398 171.044 6.64798C171.044 5.60398 171.134 3.96599 172.286 2.32799C173.492 0.617988 175.202 0.0419922 176.876 0.0419922C179.486 0.0419922 180.854 1.44599 181.466 2.32799ZM175.238 6.05399V7.25998C175.238 8.96998 175.364 10.734 176.876 10.734C178.388 10.734 178.514 8.98798 178.514 7.25998V6.05399C178.514 4.36199 178.388 2.56198 176.876 2.56198C175.292 2.56198 175.238 4.55999 175.238 6.05399Z" fill="#CC0000"/>
<path d="M5.283 31.4241C5.283 32.1081 5.535 32.1261 5.931 32.1261H6.597V34.4481H0.207001V32.1261H0.890999C1.269 32.1261 1.521 32.1081 1.521 31.4241V24.8721C1.521 24.1881 1.269 24.1701 0.890999 24.1701H0.207001V21.8481H5.013C9.063 21.8481 11.313 22.7301 11.313 26.0961C11.313 29.6241 8.379 30.0561 5.283 29.9301V31.4241V31.4241ZM5.283 27.4101C6.597 27.4461 7.245 26.9961 7.245 25.8621C7.245 24.7281 6.579 24.3141 5.283 24.3681V27.4101Z" fill="#CC0000"/>
<path d="M22.563 23.828C23.679 25.412 23.805 27.194 23.805 28.148C23.805 29.75 23.427 31.424 22.635 32.54C21.771 33.746 20.331 34.754 17.973 34.754C15.309 34.754 13.941 33.44 13.293 32.54C12.105 30.866 12.141 28.544 12.141 28.148C12.141 27.104 12.231 25.466 13.383 23.828C14.589 22.118 16.299 21.542 17.973 21.542C20.583 21.542 21.951 22.946 22.563 23.828ZM16.335 27.554V28.76C16.335 30.47 16.461 32.234 17.973 32.234C19.485 32.234 19.611 30.488 19.611 28.76V27.554C19.611 25.862 19.485 24.062 17.973 24.062C16.389 24.062 16.335 26.06 16.335 27.554Z" fill="#CC0000"/>
<path d="M32.031 26.672C31.977 25.358 31.905 24.062 30.537 24.062C28.827 24.062 28.935 25.952 28.935 28.094C28.935 32.18 29.421 32.234 30.573 32.234C31.185 32.234 32.283 32.036 32.229 29.372H36.495C36.405 32.09 34.461 34.754 30.591 34.754C28.161 34.754 24.741 33.584 24.741 28.148C24.741 24.08 27.243 21.542 30.519 21.542C33.921 21.542 36.261 23.72 36.297 26.672H32.031Z" fill="#CC0000"/>
<path d="M44.397 26.672C44.343 25.358 44.271 24.062 42.903 24.062C41.193 24.062 41.301 25.952 41.301 28.094C41.301 32.18 41.787 32.234 42.939 32.234C43.551 32.234 44.649 32.036 44.595 29.372H48.861C48.771 32.09 46.827 34.754 42.957 34.754C40.527 34.754 37.107 33.584 37.107 28.148C37.107 24.08 39.609 21.542 42.885 21.542C46.287 21.542 48.627 23.72 48.663 26.672H44.397Z" fill="#CC0000"/>
<path d="M62.361 21.8481V24.1701H61.677C61.281 24.1701 61.029 24.1881 61.029 24.8721V31.4241C61.029 32.1081 61.281 32.1261 61.677 32.1261H62.361V34.4481H56.313V32.1261H56.637C57.339 32.1261 57.267 31.6941 57.267 31.4061V28.2381H57.141L54.459 34.4481H49.797V32.1261H50.481C51.075 32.1261 51.111 31.9281 51.111 31.4061V24.8721C51.111 24.1881 50.859 24.1701 50.481 24.1701H49.797V21.8481H55.827V24.1701H55.521C55.215 24.1701 54.873 24.1161 54.873 24.8721V28.3641H54.999L57.771 21.8481H62.361Z" fill="#CC0000"/>
<path d="M76.185 21.8481V24.1701H75.5C75.104 24.1701 74.852 24.1881 74.852 24.8721V31.4241C74.852 32.1081 75.104 32.1261 75.5 32.1261H76.184V34.4481H70.136V32.1261H70.46C71.162 32.1261 71.09 31.6941 71.09 31.4061V28.2381H70.964L68.282 34.4481H63.62V32.1261H64.304C64.898 32.1261 64.934 31.9281 64.934 31.4061V24.8721C64.934 24.1881 64.682 24.1701 64.304 24.1701H63.62V21.8481H69.65V24.1701H69.344C69.038 24.1701 68.696 24.1161 68.696 24.8721V28.3641H68.822L71.594 21.8481H76.185Z" fill="#CC0000"/>
</svg>
