<svg width="93" height="42" viewBox="0 0 93 42" fill="none" xmlns="http://www.w3.org/2000/svg">
<path d="M35.19 8.26901H33.842C32.663 8.26901 31.877 8.32501 31.877 10.459V15.906H32.776C34.404 15.906 34.459 16.132 36.482 10.179C39.569 1.19501 41.983 0.353009 46.139 0.0710093C46.702 0.0140093 47.262 0.0140093 47.824 0.0710093C48.722 0.184009 50.744 0.689005 51.417 0.913005V10.235C50.969 10.066 50.52 10.066 50.126 10.066C48.441 10.066 47.543 12.593 46.42 14.727C45.578 16.355 44.397 18.376 40.411 19.163V19.892C43.5 19.725 46.138 21.466 47.373 24.666C48.385 27.193 47.992 29.495 50.406 29.495C50.912 29.495 51.754 29.215 52.034 29.158L52.147 40.332C50.293 41.061 48.441 41.287 46.868 41.287C41.759 41.287 39.738 38.198 38.053 34.155C35.47 27.866 35.47 23.767 32.83 23.767H31.876V30.899C31.876 33.033 32.662 33.088 33.841 33.088H35.189V40.332H17.107V33.088H18.455C19.69 33.088 20.476 33.033 20.476 30.899V23.767H19.466C17.052 23.767 17.163 26.856 14.243 34.155C13.008 37.243 11.155 41.287 5.42802 41.287C3.91102 41.287 2.11502 41.061 0.205017 40.332L0.261017 29.158C0.711017 29.271 1.44001 29.495 1.94601 29.495C4.30401 29.495 3.91101 27.193 4.92201 24.666C6.43801 20.903 9.30102 19.725 11.885 19.892V19.163C7.89902 18.264 6.77501 16.412 5.87701 14.727C4.75301 12.593 3.85401 10.066 2.16901 10.066C1.77601 10.066 1.32801 10.066 0.879013 10.235V0.913005C1.60801 0.689005 3.63002 0.184009 4.47202 0.0710093C5.03402 0.0140093 5.65101 0.0140093 6.21301 0.0710093C10.929 0.409009 12.895 1.69901 15.814 10.179C17.892 16.132 17.837 15.906 19.522 15.906H20.476V10.459C20.476 8.32501 19.69 8.26901 18.455 8.26901H17.107V1.02601H35.189V8.26901H35.19Z" fill="#CC0000"/>
<path d="M73.38 30.856C73.38 32.99 74.166 33.044 75.403 33.044H77.481V40.289H57.547V33.044H59.679C60.861 33.044 61.647 32.989 61.647 30.856V10.416C61.647 8.28203 60.861 8.22603 59.679 8.22603H57.547V0.983032H72.54C85.169 0.983032 92.186 3.73403 92.186 14.235C92.186 25.24 83.036 26.588 73.38 26.195V30.856V30.856ZM73.38 18.334C77.481 18.447 79.5 17.042 79.5 13.505C79.5 9.96604 77.422 8.67502 73.38 8.84402V18.334Z" fill="#CC0000"/>
</svg>
